<mxfile host="app.diagrams.net" modified="2024-01-07T13:30:26.442Z" agent="Mozilla/5.0 (Windows NT 10.0; Win64; x64) AppleWebKit/537.36 (KHTML, like Gecko) Chrome/120.0.0.0 Safari/537.36 Edg/120.0.0.0" version="22.1.15" etag="eZbr_4YBO_77RwuyXNUY" type="github">
  <diagram name="第 1 页" id="3ThmX_Iyz3Q7XCj1oaBh">
    <mxGraphModel>
      <root>
        <mxCell id="0" />
        <mxCell id="1" parent="0" />
      </root>
    </mxGraphModel>
  </diagram>
</mxfile>
